@startuml
title Domain Model : Figure List

skinparam handwritten false
skinparam shadowing false
skinparam roundcorner 10
skinparam class {
    BackgroundColor PaleTurquoise
    ArrowColor Navy
    BorderColor Navy
    BorderThickness 1
}
skinparam note {
    BackgroundColor LightYellow
    BorderColor Gray
}
skinparam package {
    BackgroundColor LightSteelBlue
    BorderColor Navy
    FontColor Navy
}
skinparam enum {
     BackgroundColor LightGoldenrodYellow
     BorderColor OrangeRed
}

package "Figure " <<Folder>> {
    class Figure <ER>{
    }
    class Category <VO>{
        Category : String
    }
    class Description <VO>{
        Description : String
    }
    enum Type <VO>{
        STATIC
        DYNAMIC
    }
    class Exclusivity <VO>{

    }
    class Period <VO>{
        StartDate : String
        EndDate : String
        + contains(Date): boolean
    }
}

' --- Relationships ---
Figure "1" *--> "1" Description : > described by
Figure "1" *--> "1" Category : > belongs to
Figure "1" *--> "1" Type : > is of type
Figure "1" *--> "0..*" Exclusivity : > has
Exclusivity "1" *--> "1" Period : > applies during




@enduml